<svg version="1.1" id="Layer_1" xmlns="http://www.w3.org/2000/svg" xmlns:xlink="http://www.w3.org/1999/xlink" x="0px" y="0px"
	 width="100%" viewBox="0 0 1000 1125" enable-background="new 0 0 1000 1125" xml:space="preserve">
<path fill="#000000" opacity="1.000000" stroke="none" 
	d="
M1000.684570,467.771820 
	C1001.000000,685.624634 1000.989380,903.249268 1001.084106,1120.873901 
	C1001.085815,1124.766968 1000.702271,1126.138306 996.127991,1126.136230 
	C666.025146,1125.986694 335.922302,1125.991577 5.819455,1126.100586 
	C1.912840,1126.101929 0.876888,1125.525146 0.879815,1121.321167 
	C1.017763,923.193298 1.000000,725.065308 1.000000,526.468628 
	C4.704779,524.151123 5.598013,527.275085 6.860220,529.441284 
	C16.195444,545.462708 23.533752,562.423767 30.285704,579.651306 
	C37.671032,598.494873 42.627869,617.998962 45.980522,637.932434 
	C46.314655,639.919006 46.341969,641.915344 46.234333,643.914001 
	C45.936131,649.451050 43.569618,652.595520 38.162594,652.862305 
	C33.887974,653.073303 33.547611,655.080750 33.288414,658.515503 
	C31.879070,677.191833 37.082855,694.175903 44.560154,711.109131 
	C60.972748,748.277405 78.399788,785.015259 93.161446,822.901855 
	C98.059319,835.472351 102.688805,848.143066 106.801407,860.996582 
	C107.575737,863.416809 108.440506,865.675110 111.157570,866.693176 
	C121.398186,870.530273 126.532791,878.391479 128.339783,888.805115 
	C130.253952,899.836426 132.940857,910.657532 137.427841,920.950623 
	C143.213898,934.223694 150.430298,946.590210 162.345825,955.324951 
	C172.579971,962.827209 183.765808,967.959961 196.970322,967.723877 
	C205.772018,967.566528 214.587128,967.225037 223.408356,968.503967 
	C233.124725,969.912659 241.481369,973.716614 248.962067,980.018433 
	C262.327545,991.277466 278.143066,996.718384 295.356018,997.440369 
	C303.350891,997.775757 310.478363,999.004761 317.657257,1002.936279 
	C341.456421,1015.969788 366.297913,1027.107300 388.902283,1042.306885 
	C391.761230,1044.229248 394.543945,1044.702515 397.827667,1043.282959 
	C402.561615,1041.236328 405.061554,1043.051392 405.108765,1048.247070 
	C405.169800,1054.965698 405.481781,1055.349121 411.998016,1054.512085 
	C430.485870,1052.137329 449.023071,1050.554443 467.638367,1049.379028 
	C494.770721,1047.665527 521.533569,1049.300293 547.937500,1055.619263 
	C554.392029,1057.163940 560.335815,1057.594727 566.988525,1056.274414 
	C577.965088,1054.096069 588.931519,1055.838257 599.200500,1060.522583 
	C605.105347,1063.216187 611.066040,1065.877808 616.511353,1069.454468 
	C620.276428,1071.927490 624.417480,1072.899414 628.776917,1073.209595 
	C631.995422,1073.438599 634.151917,1072.015869 633.713623,1068.585205 
	C633.168335,1064.316406 635.249939,1062.042114 638.774658,1060.450195 
	C650.601074,1055.108765 663.250427,1052.953857 675.915833,1050.910400 
	C678.896179,1050.429443 681.383423,1051.853516 683.588501,1053.848633 
	C686.817688,1056.770386 689.647156,1060.033081 692.229248,1063.522461 
	C693.428833,1065.143433 694.738708,1066.632812 696.539917,1067.619629 
	C698.997559,1068.966187 700.361572,1068.231445 700.558167,1065.460693 
	C700.758789,1062.634399 700.520752,1059.789185 700.793457,1056.967163 
	C701.594360,1048.678833 706.519897,1044.017700 714.796509,1043.703003 
	C718.627258,1043.557251 722.462341,1043.626831 726.294922,1043.620972 
	C729.403015,1043.616211 730.934814,1042.322998 730.730652,1039.076416 
	C730.573914,1036.584717 730.579285,1034.075562 730.754944,1031.580566 
	C731.044861,1027.461426 732.381897,1023.766541 735.414124,1020.833679 
	C746.791687,1009.828674 756.936951,997.632874 768.414429,986.721375 
	C771.572693,983.718872 775.008789,981.110779 778.633484,978.733948 
	C782.186035,976.404480 785.350220,976.801392 788.569580,979.733643 
	C791.592712,982.487122 793.647766,986.216797 797.674805,988.203491 
	C797.036011,982.423950 795.160461,977.226685 791.057068,972.904663 
	C788.658325,970.378113 785.914795,968.152832 784.277161,964.951111 
	C782.632324,961.735229 783.073181,958.625122 786.264404,957.268677 
	C793.598267,954.151062 801.022766,951.062622 809.194153,950.721313 
	C812.103577,950.599731 814.755127,951.610901 817.936890,952.539490 
	C817.849060,948.467590 819.110535,945.119202 822.744385,943.057495 
	C826.107178,941.149658 829.481750,939.540527 833.533142,939.632019 
	C837.355774,939.718262 841.205139,939.876770 845.017639,939.359680 
	C851.684387,938.455627 856.887878,934.805054 857.405823,928.199768 
	C858.373047,915.867126 865.821106,907.560425 873.243713,899.053894 
	C888.952271,881.051575 902.754761,861.671936 914.936401,841.153320 
	C930.873657,814.308655 944.098938,786.129822 955.516479,757.092712 
	C956.049927,755.736267 956.831726,754.379272 956.468811,752.259949 
	C950.007446,756.754700 944.526917,761.898376 939.543213,767.622253 
	C933.840332,774.172180 928.902283,781.278564 924.195801,788.556152 
	C920.908264,793.639771 916.842773,797.203613 910.201172,795.825500 
	C907.640259,795.294067 906.532959,796.861633 905.868347,798.933411 
	C905.156555,801.152283 904.718262,803.464233 903.715820,805.582642 
	C903.057861,806.972961 902.161743,808.396301 900.404968,808.122437 
	C898.687500,807.854675 897.981506,806.338623 898.025513,804.754150 
	C898.152283,800.185852 896.394775,800.970947 893.769470,803.026184 
	C857.048645,831.775208 819.883484,859.934998 781.825500,886.897278 
	C758.715027,903.269897 735.370789,919.316711 711.281860,934.216980 
	C702.856812,939.428284 695.551025,940.707703 688.240295,931.719604 
	C686.058411,929.037170 683.969971,929.929443 681.730835,931.489807 
	C679.136169,933.297852 677.268616,935.975708 674.364990,937.434814 
	C669.026306,940.117493 664.851562,938.821289 663.666260,933.036560 
	C662.699951,928.320129 659.725525,927.856262 656.202332,927.526917 
	C652.204712,927.153198 648.448730,927.519409 646.508118,931.856750 
	C646.100708,932.767212 645.741516,933.701233 645.152405,934.524719 
	C644.108948,935.983582 642.373657,937.406433 640.979004,936.596924 
	C635.715637,933.541748 634.725220,936.597534 633.957458,940.809875 
	C633.575806,942.903198 631.912537,944.052979 629.833801,943.219299 
	C626.637024,941.937134 624.946777,943.418213 623.185974,945.817627 
	C620.400513,949.613159 618.205566,949.617554 615.292847,945.999146 
	C612.689331,942.764771 610.611145,939.127625 607.845520,936.303833 
	C608.458557,940.590881 609.179810,945.042419 603.317566,947.120117 
	C601.429016,947.789429 601.448364,950.156128 601.322083,951.959290 
	C601.104248,955.069641 599.646729,957.161499 596.959717,958.749329 
	C593.045166,961.062622 590.273560,964.733032 586.972290,967.777283 
	C584.057068,970.465637 580.772766,972.073792 576.716797,972.310669 
	C558.387329,973.381226 540.297363,976.125061 522.507324,980.668274 
	C518.197998,981.768860 514.141846,981.898865 509.782196,980.764771 
	C486.225800,974.636963 462.329437,970.096985 438.239990,966.742126 
	C423.258179,964.655579 408.185547,963.211548 393.063568,962.210938 
	C366.364746,960.444275 341.467377,952.463806 318.309387,939.086487 
	C315.571350,937.504700 312.718384,936.126404 310.104004,934.314880 
	C305.216034,930.928162 305.104034,928.850586 309.758575,925.283569 
	C314.099854,921.956604 314.256165,921.711731 314.794647,917.094727 
	C309.307526,919.970886 303.551056,921.365417 297.718323,922.674683 
	C292.430054,923.861816 288.513092,922.566040 284.747314,918.669678 
	C270.625275,904.057800 255.526642,890.437927 240.608383,876.666931 
	C210.135147,848.537231 179.618958,820.450256 150.909775,790.516602 
	C137.928009,776.981262 124.205811,763.887878 114.730301,747.387512 
	C106.906403,733.763184 101.643562,718.961121 95.766830,704.454346 
	C93.202660,698.124573 90.575462,691.821777 87.987114,685.502563 
	C86.664635,682.273987 84.901299,680.420227 81.162834,682.343079 
	C79.280830,683.311035 77.273788,683.004639 75.366409,682.118103 
	C69.269554,679.284363 65.270554,666.644775 68.529236,660.741211 
	C70.126358,657.847839 72.442581,655.982422 75.726845,656.310364 
	C79.203018,656.657471 79.725555,655.215942 79.283928,652.265808 
	C76.450119,633.335327 74.041458,614.340576 71.016937,595.441101 
	C69.486031,585.874939 70.111931,576.677979 75.191551,568.432556 
	C82.636978,556.346924 84.297569,542.955688 85.694229,529.304260 
	C87.776627,508.950195 89.971504,488.605713 92.324593,468.278870 
	C94.103821,452.909363 95.147575,437.438690 97.736885,422.182251 
	C102.708618,392.888306 112.027321,365.086700 126.597214,339.045898 
	C140.523087,314.156189 158.042175,292.147095 177.526199,271.409576 
	C198.085083,249.528015 220.896194,230.096466 242.490204,209.353439 
	C253.854416,198.437088 267.241150,190.878586 280.600616,183.063477 
	C298.281128,172.720596 315.737274,161.995605 333.493286,151.781754 
	C366.593231,132.741562 401.022217,117.028526 438.953735,110.251068 
	C450.102936,108.258965 461.381409,107.482437 472.647430,106.419022 
	C484.856293,105.266609 496.910614,106.407181 509.032654,106.628960 
	C511.867981,106.680840 514.668213,106.465492 517.474609,105.902695 
	C529.111328,103.569008 533.115112,99.021179 533.581421,87.219986 
	C533.726196,83.557800 533.698242,79.888092 533.568115,76.222694 
	C533.495117,74.166260 532.703247,72.350853 530.440735,72.474846 
	C521.045166,72.989738 515.296875,66.463112 508.732941,61.500263 
	C507.539398,60.597843 506.419128,59.599972 505.184326,58.741795 
	C499.696777,54.928154 494.244934,53.495911 487.435089,56.131161 
	C465.384613,64.664192 442.836975,71.941505 421.745361,82.835762 
	C414.631989,86.509972 407.776550,90.604179 401.153687,95.100906 
	C399.245941,96.396202 397.274750,98.064919 394.788116,96.464073 
	C392.435822,94.949669 392.830536,92.423141 392.806549,90.117523 
	C392.783966,87.944290 393.631165,85.862495 393.550568,83.673973 
	C393.482941,81.836220 393.615570,79.847160 391.729492,78.791374 
	C389.639191,77.621223 387.710449,78.681335 386.241150,80.009811 
	C381.796448,84.028496 376.973907,87.624863 372.830872,91.979057 
	C367.994690,97.061691 362.875610,101.848763 356.895935,105.549171 
	C353.063049,107.921097 349.088104,109.576462 344.169281,108.622650 
	C323.979492,104.707657 308.549316,113.501762 295.526550,127.785400 
	C290.793121,132.977142 287.395782,139.174942 285.112427,145.875610 
	C283.970184,149.227509 281.793030,150.747910 278.300995,151.552277 
	C270.561829,153.334976 263.036835,151.447449 255.461792,150.804657 
	C250.288773,150.365662 245.132660,150.142120 240.004456,150.585968 
	C235.254379,150.997101 231.181274,153.313705 227.477356,156.342117 
	C196.192001,181.921692 168.697159,211.467850 140.060333,239.818024 
	C135.902359,243.934357 133.980759,249.300629 132.183167,254.696106 
	C129.338882,263.233215 126.832001,271.953400 121.091583,279.137878 
	C112.651840,289.700714 102.993889,299.101044 93.078682,308.270569 
	C73.781319,326.116638 53.552280,343.116852 40.253925,366.447876 
	C29.139385,385.947540 22.852705,407.083252 18.368860,428.898376 
	C13.303039,453.545044 10.550393,478.562164 6.160516,503.311920 
	C5.632401,506.289368 6.783172,510.821381 1.304426,511.224030 
	C1.000000,342.704010 1.014245,174.407990 0.912234,6.112057 
	C0.909852,2.182074 1.349877,0.864201 5.885839,0.866217 
	C335.979218,1.012896 666.072632,1.008134 996.166016,0.901451 
	C1000.042236,0.900198 1001.126526,1.428767 1001.122498,5.664107 
	C1000.976318,157.463531 1001.000000,309.263123 1001.000000,461.531342 
	C997.044678,466.040680 992.942383,469.954926 990.388977,475.139984 
	C989.954773,476.021729 989.113953,476.672363 988.380615,477.352905 
	C986.420837,479.171600 984.520386,481.333099 981.434937,479.966278 
	C978.590332,478.706177 978.788391,475.977875 978.701294,473.499451 
	C978.303894,462.190765 978.659729,450.889740 977.846008,439.556580 
	C976.366699,418.954956 973.886780,398.489258 971.201538,378.033783 
	C970.031860,369.123535 968.723938,360.217010 967.918152,351.280212 
	C967.476379,346.381012 965.786865,342.293579 963.277893,338.329651 
	C930.943359,287.243835 899.294556,235.728271 866.974304,184.634399 
	C860.252625,174.008362 851.101746,165.335648 841.884583,156.910568 
	C827.463501,143.728806 811.730225,132.267487 794.736694,122.560501 
	C771.455994,109.262184 746.732727,99.569809 720.984253,92.215759 
	C697.343567,85.463715 673.319519,85.572113 649.147766,87.147827 
	C646.149353,87.343300 643.149780,87.433426 640.155884,87.361397 
	C634.850586,87.233749 630.673462,89.206772 628.065674,93.856209 
	C625.744507,97.994827 622.805298,99.157318 618.122986,97.696327 
	C608.758118,94.774277 599.133484,96.483238 589.906250,98.133842 
	C577.253296,100.397232 571.776978,114.713806 578.439575,126.107140 
	C582.408691,132.894485 588.359314,137.759430 594.856873,141.913025 
	C608.625183,150.714447 623.906494,155.294937 640.051025,156.493759 
	C650.553040,157.273590 659.986877,159.918472 669.165161,165.345215 
	C712.387878,190.901169 753.254822,219.919128 793.943176,249.218201 
	C807.322693,258.852570 820.939209,268.163971 834.165161,277.996857 
	C841.161560,283.198395 847.883179,283.051788 855.199158,279.638763 
	C858.823608,277.947937 862.296204,275.926300 866.003784,274.428101 
	C870.400269,272.651489 873.405640,274.254974 873.049927,278.798492 
	C871.506531,298.513367 878.908264,316.000916 885.852783,333.708191 
	C889.528076,343.079376 895.308594,350.509094 903.711975,355.842957 
	C922.832092,367.979248 928.869751,385.454346 924.958374,407.082672 
	C924.662415,408.718964 924.631104,410.486664 923.936096,411.961365 
	C920.656555,418.920319 923.392090,424.809204 926.743469,430.808105 
	C932.270813,440.702057 937.722717,450.628357 944.901855,459.463287 
	C950.059692,465.810852 955.578796,471.845917 962.285339,476.580353 
	C966.330139,479.435699 968.296143,483.075500 968.330505,487.931152 
	C968.343445,489.759460 968.313293,491.608704 968.797607,493.397186 
	C969.930786,497.581451 972.359924,498.693268 976.250793,496.836517 
	C981.351135,494.402588 983.725830,495.971252 983.077942,501.757874 
	C982.004333,511.347992 980.934998,520.934509 979.979126,530.539001 
	C978.883301,541.549744 979.444031,552.467285 980.162354,561.942139 
	C979.007751,554.198303 980.801086,545.121826 981.909668,536.069763 
	C984.463013,515.220520 988.059753,494.548645 994.664978,474.531067 
	C995.637146,471.584656 995.719116,467.614258 1000.684570,467.771820 
z"/>
<path fill="#FF5858" opacity="1.000000" stroke="none" 
	d="
M1.000000,511.466125 
	C3.217657,511.984131 2.812667,510.104889 2.967622,509.088257 
	C6.335954,486.988190 9.226686,464.804352 13.125523,442.798981 
	C17.641001,417.313202 23.453571,392.116180 35.985085,369.058197 
	C42.040234,357.916718 49.416969,347.720551 58.063564,338.473206 
	C73.854347,321.585327 91.992065,307.127380 107.988655,290.452911 
	C111.850754,286.427155 115.416832,282.110199 119.010803,277.836121 
	C124.826477,270.919922 127.168999,262.330261 129.850601,254.014343 
	C132.220367,246.665543 135.792984,240.438721 141.375351,234.984650 
	C158.302200,218.446747 174.675247,201.337936 191.736053,184.942657 
	C203.268448,173.860138 215.438629,163.418564 227.662140,153.091064 
	C231.602295,149.762085 236.554016,147.859467 242.147400,147.921783 
	C250.585236,148.015793 258.955963,148.449295 267.272278,149.941406 
	C271.751801,150.745117 276.108246,149.121674 280.546539,148.979126 
	C282.704742,148.909821 282.019775,147.006592 282.391388,145.999588 
	C289.722565,126.133568 303.325653,112.850395 323.677246,106.830566 
	C329.614380,105.074425 335.745728,103.862114 342.009094,105.914444 
	C348.827667,108.148674 354.478790,105.168098 359.358765,100.994125 
	C367.280060,94.218819 374.866150,87.048073 382.512878,79.957031 
	C385.721497,76.981575 389.425964,73.192894 393.589325,75.587173 
	C397.747345,77.978363 396.362122,83.416275 395.569031,87.502052 
	C395.018433,90.338440 395.162170,92.959618 395.123657,96.553535 
	C403.888550,89.954666 412.621490,84.693855 421.715881,80.072220 
	C439.859222,70.852066 459.009125,64.066750 478.057312,57.046185 
	C480.947601,55.980915 484.072693,55.370136 486.737122,53.907726 
	C495.939606,48.856815 502.729095,53.809288 509.493683,59.024403 
	C513.119202,61.819481 516.403625,65.120430 520.249146,67.547859 
	C523.697632,69.724625 527.687744,70.984192 531.972351,69.511345 
	C533.587708,68.956055 535.965820,67.708878 535.921753,70.922951 
	C535.808594,79.166275 536.922791,87.479210 534.735413,95.631378 
	C533.157349,101.512581 529.364807,105.254402 523.636536,106.958359 
	C514.652283,109.630875 505.543060,109.583847 496.311584,108.246910 
	C492.393585,107.679482 488.328339,107.836479 484.348541,108.035332 
	C460.131561,109.245377 436.148224,111.892197 412.784058,118.920288 
	C394.356689,124.463341 376.605774,131.715347 359.495361,140.344269 
	C341.779572,149.278473 324.737244,159.508835 307.723846,169.744247 
	C292.072449,179.160324 276.347900,188.455338 260.620728,197.744644 
	C252.772980,202.379944 246.287384,208.745331 239.807007,214.925385 
	C227.209152,226.939392 214.414062,238.763504 201.596527,250.513641 
	C190.915421,260.305267 181.072952,270.837738 171.355667,281.438202 
	C155.348221,298.900574 141.311951,317.903046 129.552246,338.639221 
	C116.664696,361.364075 108.033585,385.583496 102.194550,410.840790 
	C99.288040,423.413147 98.112976,436.333496 96.908936,449.218658 
	C95.661354,462.569672 93.329620,475.822540 92.196106,489.179779 
	C91.555641,496.727020 90.679634,504.245941 89.944595,511.777924 
	C88.911507,522.364136 86.855865,532.887085 86.427338,543.485229 
	C86.015747,553.664429 81.003204,561.832886 76.828331,570.393921 
	C72.815575,578.622498 71.972481,586.777588 73.746407,595.773560 
	C75.766792,606.019348 76.557823,616.503296 78.021423,626.864319 
	C79.503716,637.357483 81.132980,647.830322 82.762901,658.301941 
	C82.945221,659.473267 83.407082,660.930908 82.599869,661.607422 
	C81.352516,662.652771 80.699287,660.943848 79.834373,660.327881 
	C77.684021,658.796570 75.316910,657.125305 72.841431,659.110474 
	C70.068077,661.334595 68.299652,664.526184 69.181458,668.152649 
	C69.861412,670.948975 71.219971,673.681946 72.749496,676.150146 
	C76.582870,682.336060 78.909500,682.519958 83.942009,677.182861 
	C86.195854,674.792603 86.345718,677.039612 87.065819,678.339050 
	C91.494659,686.330688 94.463097,694.960144 97.970802,703.351562 
	C104.979256,720.117676 110.712540,737.463013 120.925362,752.750732 
	C125.865837,760.146240 131.929367,766.626648 137.833710,773.170898 
	C154.334717,791.459961 171.860596,808.786438 189.562927,825.901184 
	C200.513443,836.488281 211.716263,846.831421 222.861938,857.219666 
	C238.223984,871.537781 253.681046,885.749390 268.938507,900.183411 
	C275.448517,906.341919 281.828613,912.633118 288.291199,918.838562 
	C289.647888,920.141296 290.910065,921.485474 292.978668,920.986389 
	C301.706146,918.881165 311.706970,919.581299 316.979126,909.637817 
	C319.942841,919.208374 317.400024,924.214905 306.948700,929.595032 
	C320.668854,938.085022 334.548126,945.708191 349.653076,950.874146 
	C365.968811,956.454224 382.756561,959.074219 399.995728,960.217957 
	C415.795746,961.266357 431.553284,963.353394 447.264984,965.785950 
	C469.327057,969.201721 491.178101,973.445984 512.759216,979.074585 
	C517.224243,980.239075 520.967896,978.350342 524.934448,977.462036 
	C538.165649,974.499207 551.472107,972.196472 564.982727,970.856750 
	C569.427551,970.416077 573.871826,970.357300 578.281799,969.884521 
	C581.006653,969.592468 583.384521,968.001404 585.516052,966.046631 
	C589.390015,962.493896 592.655029,958.399780 597.425537,955.625061 
	C600.827698,953.646240 598.387573,948.530823 599.968079,945.108643 
	C600.531128,943.889404 599.078125,941.790833 600.970276,941.264465 
	C602.525269,940.832031 602.732605,942.826477 603.477783,943.827271 
	C603.827515,944.296936 604.531982,944.806458 605.052673,944.783142 
	C606.235718,944.730103 605.886536,943.630554 605.993958,942.879456 
	C606.753052,937.569031 603.947388,933.189392 602.383972,928.294006 
	C609.976257,933.052673 614.193665,940.731812 619.279846,947.853577 
	C621.348633,945.377380 621.564575,941.860718 624.419312,940.273438 
	C627.401672,938.615234 630.333374,937.629395 631.724487,943.035522 
	C632.213318,938.859070 632.679932,935.483826 632.971741,932.093506 
	C633.097168,930.636719 633.412170,929.417969 634.956848,929.091309 
	C636.465637,928.772278 637.466858,929.534119 638.006409,930.974670 
	C638.290222,931.732422 638.581604,932.528381 639.061218,933.162109 
	C639.748718,934.070618 640.547363,935.454590 641.413452,935.546021 
	C642.973938,935.710632 643.144653,933.790100 643.617004,932.738708 
	C647.022949,925.158630 647.747437,924.384399 655.749878,925.124023 
	C659.299438,925.452087 662.750183,925.887939 666.674683,924.708862 
	C666.164307,926.886108 665.592407,928.509521 665.440674,930.171265 
	C665.231079,932.466980 665.992920,934.514954 667.690613,936.198608 
	C669.559387,938.051819 671.116272,936.414001 672.596741,935.707275 
	C676.824768,933.689026 679.706360,929.901611 683.269104,927.008728 
	C685.991943,924.797913 686.942139,924.785889 688.602783,927.907654 
	C689.787781,930.135498 691.323181,932.353638 693.611206,933.907837 
	C699.582581,937.964233 705.181702,935.343445 710.022156,932.287842 
	C740.935791,912.773315 771.039124,892.028015 800.647888,870.604980 
	C825.144287,852.880920 849.128845,834.446228 873.237183,816.190369 
	C882.330139,809.304932 891.133911,802.037598 900.204041,794.837524 
	C902.438782,799.227722 899.415344,803.156311 900.314697,808.188904 
	C902.060120,802.940308 903.718628,798.692444 904.846375,794.308044 
	C905.626892,791.273010 906.044189,790.196533 909.234802,792.516541 
	C913.536987,795.644836 917.465088,794.126953 921.043457,788.748779 
	C928.325378,777.804382 935.713867,766.925293 945.532776,758.029236 
	C950.453979,753.570496 955.411194,749.082214 962.587708,745.351135 
	C959.185547,754.094666 956.293396,761.745483 953.239929,769.331421 
	C945.750732,787.937317 937.028931,805.985840 927.627319,823.674683 
	C916.533936,844.546631 904.001343,864.565247 889.305542,883.127808 
	C881.476379,893.017029 873.390564,902.713623 865.138123,912.252869 
	C861.054016,916.973877 861.344116,922.826721 860.158691,928.231689 
	C858.455627,935.996704 852.387268,941.840820 843.022461,942.074097 
	C837.340759,942.215637 831.515198,940.760071 826.006287,943.874084 
	C819.232300,947.703247 818.814697,948.661255 822.843567,955.429626 
	C823.257019,956.124207 823.594055,956.874146 823.874512,957.632385 
	C823.967529,957.883972 823.771667,958.242371 823.693909,958.619751 
	C821.983276,959.559326 821.399231,957.781006 820.503418,957.115967 
	C814.653625,952.773315 808.315247,951.957397 801.505493,954.231262 
	C796.890381,955.772400 792.339417,957.515198 787.690308,958.941467 
	C784.848022,959.813354 784.291748,960.937317 785.970398,963.547241 
	C787.789368,966.375427 790.190125,968.599731 792.471558,970.974670 
	C798.832886,977.596313 801.494934,985.511963 800.898193,995.061157 
	C797.069519,993.802979 795.052307,990.805054 792.945496,988.316406 
	C781.897949,975.266785 784.382568,976.380920 772.468811,986.545715 
	C759.379761,997.713135 747.959045,1010.877991 736.174866,1023.511536 
	C731.645020,1028.368042 732.244385,1034.985474 733.526978,1040.923584 
	C734.420288,1045.059570 733.818176,1046.305786 729.584839,1046.061035 
	C724.933777,1045.792236 720.255127,1045.988892 715.588562,1046.002563 
	C707.516541,1046.026123 703.221619,1050.224487 703.009583,1058.330078 
	C702.948608,1060.661743 703.000061,1062.996460 703.000000,1065.329712 
	C702.999939,1067.660156 703.000000,1069.990601 703.000000,1072.317383 
	C695.693298,1072.439819 692.043579,1067.270264 688.154968,1062.480835 
	C687.546265,1061.731079 687.128296,1060.829468 686.550110,1060.051636 
	C681.923157,1053.827148 676.589111,1052.104004 668.580688,1054.408203 
	C658.476562,1057.315430 647.970398,1058.781250 638.275574,1063.239258 
	C635.656372,1064.443726 635.234924,1065.903687 636.031616,1068.451660 
	C637.522644,1073.219971 635.154602,1076.306274 629.950928,1075.918945 
	C624.795166,1075.535034 619.710510,1074.656372 615.151611,1071.696655 
	C605.398987,1065.365234 595.002991,1060.155151 583.459717,1058.353638 
	C576.695068,1057.297852 569.525024,1056.930908 562.920898,1059.659302 
	C559.612244,1061.026245 556.557617,1060.702637 553.532471,1059.720215 
	C541.664673,1055.866699 529.453857,1054.198608 517.088257,1052.875366 
	C503.406647,1051.411011 489.701691,1050.293457 476.015411,1051.147461 
	C460.942566,1052.087891 445.835022,1052.704590 430.814178,1054.777954 
	C422.233307,1055.962524 413.556183,1056.620972 404.975433,1057.978271 
	C403.023468,1058.287109 402.055237,1057.735962 401.904297,1055.387207 
	C401.718536,1052.496216 402.815857,1049.896973 403.030731,1047.125000 
	C403.145813,1045.640625 402.062500,1044.708984 401.755493,1043.448364 
	C400.975739,1043.981689 400.161743,1044.471558 399.422058,1045.055542 
	C396.016876,1047.744141 392.436768,1047.839722 388.970886,1045.411865 
	C373.569763,1034.623413 356.943298,1026.019775 340.194031,1017.588562 
	C329.715607,1012.313904 319.448273,1006.616211 309.145752,1000.999084 
	C307.099060,999.883301 305.023285,999.940369 302.903748,1000.016663 
	C285.422485,1000.645996 269.287720,996.360229 254.412140,987.113892 
	C248.451935,983.409180 243.799881,977.988159 237.274063,974.968201 
	C230.301041,971.741333 222.985779,970.517273 215.514801,970.076599 
	C209.203506,969.704285 202.848099,969.841797 196.520554,970.032043 
	C182.322647,970.458984 170.390274,964.789062 159.736160,956.158569 
	C141.447052,941.343079 133.008881,920.933838 128.000076,898.710022 
	C126.928986,893.957642 126.461449,889.009949 124.869301,884.447632 
	C122.191055,876.772949 117.913719,870.262512 108.869476,869.027039 
	C107.108459,868.786438 106.453964,868.014587 105.925232,866.324707 
	C100.105865,847.724548 93.410164,829.432190 85.957024,811.429138 
	C80.608513,798.509888 74.980713,785.705566 69.409531,772.879456 
	C59.953003,751.108276 49.754070,729.667175 40.789406,707.672424 
	C37.299110,699.109070 33.273853,690.890808 31.869860,681.539429 
	C30.275333,670.919128 31.636663,660.338989 30.860119,649.352661 
	C32.923904,650.216003 34.758083,650.191589 36.604595,650.724365 
	C40.676052,651.898987 43.959949,648.730835 43.969040,643.889343 
	C43.985455,635.144958 41.498993,626.775330 39.610981,618.356323 
	C33.268543,590.073914 22.003571,563.618042 8.891182,537.915588 
	C6.693820,533.608459 4.734109,529.062744 1.249638,525.660767 
	C1.000000,521.310730 1.000000,516.621521 1.000000,511.466125 
z"/>
<path fill="#FF5858" opacity="1.000000" stroke="none" 
	d="
M1001.000000,467.571533 
	C997.710693,468.852386 997.866577,472.095673 997.143311,474.319336 
	C991.447876,491.830170 988.018005,509.896393 985.177856,528.035217 
	C983.504639,538.721497 982.837097,549.581665 982.117981,560.390320 
	C981.918945,563.382202 980.615173,566.109131 980.932373,569.313599 
	C977.744812,565.119690 975.669556,546.052490 977.030945,533.151001 
	C978.314209,520.991272 979.798157,508.852783 981.252930,496.190796 
	C980.214966,496.709625 979.698181,496.812561 979.428223,497.127258 
	C977.056458,499.891571 974.277466,502.486847 970.518127,500.657837 
	C967.005005,498.948608 965.723572,495.254883 966.060425,491.463318 
	C966.638733,484.953491 964.031433,480.930420 958.728455,476.843262 
	C946.011475,467.041840 936.667358,454.080444 929.122192,439.991425 
	C926.218262,434.568909 922.809326,429.409668 920.570923,423.541840 
	C919.320251,420.263245 919.589233,417.852631 920.546692,414.834442 
	C924.873962,401.194427 925.429810,387.652191 918.795776,374.456390 
	C916.066345,369.027222 912.265869,364.029510 907.167542,361.220947 
	C892.736694,353.271118 884.984741,340.697784 879.978088,325.711884 
	C876.950378,316.649261 872.817200,307.890045 871.744385,298.298340 
	C871.083496,292.389648 869.213562,286.494049 870.917542,280.411804 
	C871.347534,278.877075 870.981995,277.119446 870.981995,274.602081 
	C865.889160,277.131165 861.364929,279.510040 856.730286,281.649902 
	C848.829712,285.297668 841.111206,287.082092 833.584412,280.346466 
	C830.224792,277.339905 826.023621,275.292023 822.313110,272.656097 
	C805.961121,261.039948 789.488953,249.584305 773.360596,237.664169 
	C750.916504,221.076187 727.936707,205.269958 704.504700,190.142120 
	C689.633789,180.541321 674.157166,171.883179 659.148560,162.488617 
	C653.553894,158.986664 647.358826,159.700821 641.506165,159.195282 
	C623.466064,157.637085 606.531311,152.881119 591.594971,142.689636 
	C583.541504,137.194519 575.988892,130.780502 573.552368,120.227730 
	C570.967896,109.034363 579.434998,96.188225 590.983704,95.059059 
	C597.385986,94.433090 603.838379,94.299889 610.271240,94.013512 
	C614.074585,93.844200 617.904419,94.466339 621.172729,96.208290 
	C623.663696,97.535919 624.052002,96.096169 624.687622,94.698936 
	C628.025757,87.360794 633.628052,84.798744 641.656616,84.821823 
	C651.906860,84.851273 662.187744,84.281181 672.444580,83.876404 
	C698.987427,82.828896 724.042908,89.310356 748.530701,98.358749 
	C771.189697,106.731392 792.813721,117.348900 812.883728,130.961761 
	C829.998779,142.570297 845.506653,156.049011 859.565979,171.158798 
	C869.516785,181.853119 876.197998,194.873123 883.978516,207.089462 
	C893.780701,222.479919 903.347473,238.020432 913.001221,253.505310 
	C928.669495,278.637787 944.323975,303.778870 959.990417,328.912476 
	C961.452087,331.257507 962.692322,333.807587 964.492554,335.861725 
	C969.578369,341.664551 970.217163,348.790405 971.001526,355.926025 
	C972.358826,368.273041 974.041077,380.573059 975.830261,392.867737 
	C977.342224,403.257294 977.856384,413.788055 979.026978,424.232239 
	C980.967773,441.548523 981.202026,458.917267 981.026123,476.309143 
	C981.017151,477.195496 980.559570,478.381897 981.862854,478.856659 
	C983.195801,479.342163 983.965698,478.376068 984.895630,477.672180 
	C988.161194,475.200226 989.701172,471.454407 991.914978,468.223602 
	C994.020508,465.150757 996.264099,462.468933 1000.622803,462.000854 
	C1001.000000,463.714355 1001.000000,465.428711 1001.000000,467.571533 
z"/>
<path fill="#FF5858" opacity="1.000000" stroke="none" 
	d="
M351.282959,618.697021 
	C313.090454,560.059082 275.114258,501.723755 236.774460,442.829895 
	C235.045609,446.622009 237.070190,449.649719 236.939041,452.666107 
	C236.498383,462.800964 237.705872,472.874207 238.161026,482.953125 
	C241.977066,567.455017 239.024536,651.995422 240.110977,736.507568 
	C240.171707,741.231506 238.754089,742.252808 234.350388,742.100708 
	C224.863297,741.773132 215.351685,741.814636 205.861298,742.090332 
	C202.010910,742.202148 200.892639,741.224609 200.903366,737.221069 
	C201.047928,683.230530 201.000290,629.239502 201.000290,575.248596 
	C201.000290,513.592346 201.056061,451.935913 200.884628,390.280121 
	C200.872177,385.797699 202.034775,384.785980 206.360077,384.889832 
	C219.183868,385.197632 232.020142,385.050476 244.850662,384.958984 
	C247.531387,384.939880 249.145081,385.568939 250.785110,388.095276 
	C271.682739,420.286194 292.836182,452.310822 313.815582,484.448883 
	C327.857574,505.959595 341.659332,527.627075 355.687042,549.147217 
	C379.667511,585.936035 403.868988,622.581726 427.663605,659.489990 
	C432.238708,666.586548 437.186493,673.457886 441.411407,680.787964 
	C441.853485,681.554993 442.486145,682.517090 444.446594,682.381165 
	C441.561859,674.873047 444.214417,667.029785 442.255371,659.473022 
	C442.051270,658.685913 441.995209,657.836304 442.014130,657.018982 
	C442.363983,641.905396 440.850769,626.849304 440.897369,611.725342 
	C441.124512,538.035095 441.037689,464.343719 440.906158,390.653015 
	C440.898376,386.282349 441.731415,384.672394 446.489624,384.874542 
	C456.303558,385.291412 466.151031,385.146820 475.977448,384.919281 
	C479.336426,384.841492 480.105072,385.928406 480.069794,389.117706 
	C479.909424,403.613495 479.999725,418.112061 479.999725,432.609619 
	C479.999725,533.925842 479.959717,635.242188 480.123596,736.558167 
	C480.131409,741.378357 478.597565,742.183105 474.302551,742.093811 
	C461.643494,741.830872 448.972015,741.837769 436.313080,742.103394 
	C432.724731,742.178650 430.817627,740.943542 428.948547,738.043152 
	C414.053711,714.929932 398.999023,691.919800 383.991882,668.878906 
	C373.162170,652.251770 362.330231,635.625977 351.282959,618.697021 
z"/>
<path fill="#FF5858" opacity="1.000000" stroke="none" 
	d="
M542.046265,385.000000 
	C626.867676,385.000000 711.194458,385.045349 795.520935,384.880310 
	C800.263367,384.871033 801.260864,386.284576 801.097595,390.662933 
	C800.768860,399.483307 800.798462,408.331268 801.092102,417.154114 
	C801.221436,421.041443 800.174683,422.115845 796.203796,422.096313 
	C762.040649,421.928162 727.875366,422.123627 693.713318,421.863678 
	C688.697327,421.825531 687.886230,423.299133 687.892578,427.925110 
	C688.032837,530.750183 687.969788,633.575623 688.101440,736.400757 
	C688.107178,740.884338 687.095032,742.285278 682.457458,742.118591 
	C671.971802,741.741516 661.454956,741.755676 650.968201,742.116943 
	C646.601501,742.267395 645.907349,740.809753 645.911682,736.825989 
	C646.023743,634.000793 645.959900,531.175415 646.119812,428.350342 
	C646.127747,423.229309 644.963440,421.824951 639.712158,421.865662 
	C605.883484,422.127808 572.051025,421.890137 538.222046,422.128021 
	C533.602417,422.160522 532.745789,420.777649 532.902649,416.579346 
	C533.226013,407.925446 533.267029,399.239380 532.890808,390.589783 
	C532.693298,386.050415 533.964844,384.176788 538.556580,384.975433 
	C539.526978,385.144226 540.551880,385.000000 542.046265,385.000000 
z"/>
<path fill="#000000" opacity="1.000000" stroke="none" 
	d="
M82.170532,703.175964 
	C86.812553,706.178711 88.584732,710.696350 90.427406,715.004517 
	C93.789383,722.864807 96.682655,730.926453 101.111816,738.484253 
	C95.413498,737.657471 89.167770,732.334961 89.236473,726.803406 
	C89.340462,718.431885 85.146835,711.881897 81.961365,704.439941 
	C81.831146,703.730103 81.743057,703.386169 82.170532,703.175964 
z"/>
<path fill="#000000" opacity="1.000000" stroke="none" 
	d="
M74.826134,719.822754 
	C71.649422,716.394409 68.993118,713.109070 66.326500,709.832092 
	C65.640633,708.989258 64.278564,708.246155 65.572144,707.004395 
	C66.720497,705.902039 67.484360,704.261047 69.338974,704.033630 
	C71.267830,703.797058 71.416771,705.604736 71.742783,706.582825 
	C73.006050,710.372803 73.946838,714.270386 75.043098,718.528076 
	C75.166580,719.275085 75.254616,719.622009 74.826134,719.822754 
z"/>
<path fill="#000000" opacity="1.000000" stroke="none" 
	d="
M82.112350,703.884460 
	C81.103638,703.738831 80.772049,703.202637 81.317474,702.410767 
	C81.350441,702.362854 81.958687,702.711243 82.492661,703.092529 
	C82.559212,703.438049 82.432365,703.566406 82.112350,703.884460 
z"/>
<path fill="#000000" opacity="1.000000" stroke="none" 
	d="
M74.884979,719.114014 
	C75.901527,719.266052 76.220093,719.808228 75.672485,720.598999 
	C75.641815,720.643311 75.032715,720.287170 74.501190,719.896973 
	C74.436859,719.551025 74.564163,719.425415 74.884979,719.114014 
z"/>
</svg>